<svg width="16" height="19" viewBox="0 0 16 19" fill="none" xmlns="http://www.w3.org/2000/svg">
<path d="M3.39087 16.6215C4.47195 16.9652 6.04481 17.2201 7.99901 17.2201C9.95383 17.2201 11.5272 16.9652 12.6086 16.6215C13.1499 16.4494 13.5637 16.2565 13.8398 16.0651C14.123 15.8689 14.2347 15.6935 14.2347 15.5633C14.2347 15.465 14.1591 15.3253 13.9545 15.1601C13.7547 14.9988 13.4507 14.8291 13.0419 14.6683C12.235 14.3509 11.0353 14.0745 9.46663 13.9617C9.01774 14.6234 8.64966 15.1247 8.4639 15.3725L3.39087 16.6215ZM3.39087 16.6215C2.84976 16.4494 2.43614 16.2565 2.16005 16.0651M3.39087 16.6215L2.16005 16.0651M2.16005 16.0651C1.87697 15.8689 1.76528 15.6936 1.76528 15.5633M2.16005 16.0651L1.76528 15.5633M1.76528 15.5633C1.76528 15.465 1.84088 15.3252 2.04548 15.16M1.76528 15.5633L2.04548 15.16M2.04548 15.16C2.24531 14.9987 2.54931 14.8289 2.95811 14.668M2.04548 15.16L2.95811 14.668M2.95811 14.668C3.765 14.3506 4.96463 14.0742 6.53323 13.9615M2.95811 14.668L6.53323 13.9615M6.53323 13.9615C6.98222 14.6234 7.35043 15.1248 7.53616 15.3727C7.53614 15.3727 7.53613 15.3727 7.53611 15.3726L6.53323 13.9615ZM7.9999 8.74202H8.00002C8.71744 8.74121 9.4048 8.44957 9.91142 7.9318C10.418 7.41411 10.7025 6.71265 10.7033 5.98143V5.98132C10.7033 5.43581 10.545 4.90239 10.2482 4.44849C9.95144 3.99456 9.52939 3.64044 9.03519 3.43124C8.54096 3.22203 7.997 3.16725 7.47219 3.27395C6.9474 3.38064 6.46565 3.64392 6.08774 4.03015C5.70985 4.41635 5.45274 4.90814 5.34859 5.44322C5.24445 5.97829 5.29787 6.53293 5.50219 7.03709C5.70651 7.54127 6.05268 7.97255 6.49724 8.27616C6.94183 8.57978 7.46476 8.74199 7.9999 8.74202ZM3.89126 5.98133L3.89126 5.98117C3.89038 5.42856 3.99613 4.88125 4.20239 4.37056C4.40866 3.85988 4.71136 3.39591 5.09309 3.00515C5.47481 2.61439 5.92805 2.3045 6.42683 2.09311C6.9256 1.88172 7.46018 1.77295 8 1.77295C8.53982 1.77295 9.0744 1.88172 9.57317 2.09311C10.0719 2.3045 10.5252 2.61439 10.9069 3.00515C11.2886 3.39591 11.5913 3.85988 11.7976 4.37056C12.0039 4.88125 12.1096 5.42856 12.1087 5.98117V5.98133C12.1087 6.66308 11.9108 7.46261 11.5938 8.30373C11.2772 9.14363 10.8444 10.0186 10.3803 10.8494C9.50075 12.424 8.51235 13.8336 8.00008 14.5356C7.48766 13.8336 6.49921 12.4239 5.61965 10.8494C5.15556 10.0186 4.72277 9.14361 4.40622 8.30372C4.08921 7.46261 3.89126 6.66308 3.89126 5.98133ZM7.99979 7.86209C7.63678 7.86206 7.28175 7.75205 6.97956 7.54569C6.67731 7.33928 6.44141 7.04568 6.30202 6.70177C6.16263 6.35783 6.12613 5.97926 6.19722 5.614C6.2683 5.24875 6.44372 4.91354 6.70095 4.65065C6.95816 4.38778 7.2856 4.20902 7.64173 4.13662C7.99785 4.06422 8.36701 4.10136 8.7026 4.24343C9.03823 4.38551 9.32544 4.62627 9.52768 4.93559C9.72991 5.24492 9.83798 5.6088 9.838 5.98122C9.83746 6.48058 9.64311 6.95891 9.29825 7.31136C8.95345 7.66374 8.48644 7.86154 7.99979 7.86209ZM15.1 15.5633C15.1 15.1972 14.9263 14.8747 14.6367 14.5975C14.3481 14.3213 13.9399 14.0849 13.4552 13.8857C12.5253 13.5036 11.2924 13.25 10.0194 13.1243C10.6664 12.1176 11.3855 10.8968 11.952 9.66567C12.5435 8.38013 12.974 7.07224 12.974 5.98133C12.974 4.63437 12.4505 3.34215 11.5179 2.38906C10.5853 1.43589 9.31989 0.9 7.99999 0.9C6.68008 0.9 5.41469 1.43589 4.48206 2.38906C3.54949 3.34215 3.02597 4.63437 3.02597 5.98133C3.02597 7.0722 3.45644 8.38004 4.04796 9.66555C4.61442 10.8966 5.33346 12.1174 5.98045 13.1241C4.70754 13.2497 3.47474 13.5033 2.54483 13.8854C2.06011 14.0846 1.65187 14.321 1.36335 14.5973C1.07375 14.8746 0.9 15.1971 0.9 15.5633C0.9 16.0016 1.15064 16.3777 1.55525 16.6909C1.95963 17.0038 2.52907 17.2633 3.19749 17.4707C4.5354 17.8858 6.29573 18.1 7.99901 18.1C9.70274 18.1 11.4636 17.8858 12.8019 17.4707C13.4705 17.2633 14.0401 17.0038 14.4446 16.6909C14.8493 16.3778 15.1 16.0016 15.1 15.5633Z" fill="#F7C23D" stroke="#F7C23D" stroke-width="0.2"/>
</svg>
