<svg width="18" height="14" viewBox="0 0 18 14" fill="none" xmlns="http://www.w3.org/2000/svg">
<path d="M16.0001 0.9H16L2.36364 0.9L2.36352 0.9C1.97551 0.900465 1.60353 1.05481 1.32917 1.32917C1.05481 1.60353 0.900465 1.97551 0.9 2.36352V2.36364L0.9 11.6364L0.9 11.6365C0.900465 12.0245 1.05481 12.3965 1.32917 12.6708C1.60353 12.9452 1.97551 13.0995 2.36352 13.1H2.36364H16H16.0001C16.3881 13.0995 16.7601 12.9452 17.0345 12.6708C17.3088 12.3965 17.4632 12.0245 17.4636 11.6365V11.6364V2.36364V2.36352C17.4632 1.97551 17.3088 1.60353 17.0345 1.32917C16.7601 1.05481 16.3881 0.900465 16.0001 0.9ZM2.36361 1.64545H2.36364H16H16C16.1679 1.64541 16.3306 1.70421 16.4596 1.81162C16.5709 1.90426 16.6512 2.02802 16.6907 2.16625L9.54515 6.35617C9.54514 6.35618 9.54513 6.35618 9.54512 6.35619C9.43485 6.42053 9.30948 6.45443 9.18182 6.45443C9.05416 6.45443 8.92878 6.42053 8.81852 6.35619C8.81851 6.35618 8.8185 6.35618 8.81849 6.35617L1.67291 2.16625C1.71242 2.02802 1.7927 1.90426 1.90402 1.81162C2.03308 1.70421 2.1957 1.64541 2.36361 1.64545ZM11.1796 6.26129L16.7182 3.01436V10.844L11.1796 6.26129ZM1.64545 10.844V3.01436L7.18401 6.26129L1.64545 10.844ZM2.36378 12.3545C2.36373 12.3545 2.36368 12.3545 2.36364 12.3545C2.19166 12.3543 2.02546 12.2924 1.89517 12.1802C1.77885 12.0799 1.69801 11.9455 1.66369 11.7969L7.8684 6.66264L8.44201 6.99842C8.66631 7.13011 8.92171 7.19955 9.18182 7.19955C9.44193 7.19955 9.69732 7.13011 9.92163 6.99842L10.4952 6.66264L16.6999 11.7969C16.6656 11.9455 16.5848 12.0799 16.4685 12.1802C16.3382 12.2924 16.172 12.3543 16 12.3545C16 12.3545 15.9999 12.3545 15.9999 12.3545H2.36378Z" fill="#F6C23D" stroke="#F7C23D" stroke-width="0.2"/>
</svg>
