<svg width="110" height="27" viewBox="0 0 110 27" fill="none" xmlns="http://www.w3.org/2000/svg">
<path d="M0.28125 4.39648V0.792969H12.5332V4.39648H8.38477V26H4.42969V4.39648H0.28125ZM13.1133 0.792969H17.0508L19.1953 9.40625L20.4258 15.3125L21.3574 9.44141L23.168 0.792969H27.2988L23.0625 19.584C22.8633 20.5449 22.6406 21.3652 22.3945 22.0449C22.1484 22.7129 21.8262 23.334 21.4277 23.9082C21.0293 24.4707 20.5488 24.9102 19.9863 25.2266C19.4238 25.543 18.7324 25.7773 17.9121 25.9297C17.1035 26.0703 16.1543 26.1055 15.0645 26.0352V22.502C16.1426 22.5723 16.957 22.4668 17.5078 22.1855C18.0586 21.9043 18.4102 21.3301 18.5625 20.4629L18.5977 20.2344L13.1133 0.792969ZM27.8086 4.39648V0.792969H40.0605V4.39648H35.9121V26H31.957V4.39648H27.8086ZM40.6406 0.792969H44.5781L46.7227 9.40625L47.9531 15.3125L48.8848 9.44141L50.6953 0.792969H54.8262L50.5898 19.584C50.3906 20.5449 50.168 21.3652 49.9219 22.0449C49.6758 22.7129 49.3535 23.334 48.9551 23.9082C48.5566 24.4707 48.0762 24.9102 47.5137 25.2266C46.9512 25.543 46.2598 25.7773 45.4395 25.9297C44.6309 26.0703 43.6816 26.1055 42.5918 26.0352V22.502C43.6699 22.5723 44.4844 22.4668 45.0352 22.1855C45.5859 21.9043 45.9375 21.3301 46.0898 20.4629L46.125 20.2344L40.6406 0.792969ZM56.4961 26V0.792969H62.332C64.2891 0.792969 65.7598 1.32617 66.7441 2.39258C67.7402 3.45898 68.2383 5.00586 68.2383 7.0332V10.3027C68.2383 12.3301 67.7402 13.877 66.7441 14.9434C65.7598 15.998 64.2891 16.5254 62.332 16.5254H60.4512V26H56.4961ZM60.4512 12.9395H62.332C62.9883 12.9395 63.4746 12.7578 63.791 12.3945C64.1074 12.0312 64.2656 11.416 64.2656 10.5488V6.76953C64.2656 5.90234 64.1074 5.29297 63.791 4.94141C63.4746 4.57812 62.9883 4.39648 62.332 4.39648H60.4512V12.9395Z" fill="#333333"/>
<path d="M70.1016 26V0.792969H80.543V4.39648H74.0566V26H70.1016ZM82.1777 26L86.2031 0.792969H92.0039L96.0293 26H92.0391L91.3535 21.4297H86.4844L85.7988 26H82.1777ZM86.9941 18.002H90.8086L88.9102 5.25781L86.9941 18.002ZM97.6641 19.9531V17.1758H101.408V20.1992C101.408 21.8633 102.088 22.6953 103.447 22.6953C104.127 22.6953 104.637 22.4844 104.977 22.0625C105.328 21.6406 105.504 20.9023 105.504 19.8477V17.8613C105.504 16.7129 105.299 15.8926 104.889 15.4004C104.49 14.9082 103.834 14.6621 102.92 14.6621H101.936V11.0586H103.131C103.916 11.0586 104.508 10.8594 104.906 10.4609C105.305 10.0508 105.504 9.36523 105.504 8.4043V6.99805C105.504 5.91992 105.328 5.16992 104.977 4.74805C104.637 4.32617 104.127 4.11523 103.447 4.11523C102.064 4.11523 101.373 4.94141 101.373 6.59375V8.65039H97.7344V6.76953C97.7344 4.74219 98.2266 3.19531 99.2109 2.12891C100.195 1.05078 101.648 0.511719 103.57 0.511719C105.492 0.511719 106.951 1.0625 107.947 2.16406C108.955 3.25391 109.459 4.8125 109.459 6.83984V7.49023C109.459 10.1855 108.539 11.9141 106.699 12.6758C108.539 13.4727 109.459 15.2363 109.459 17.9668V19.9531C109.459 21.9805 108.955 23.5449 107.947 24.6465C106.951 25.7363 105.492 26.2812 103.57 26.2812C101.648 26.2812 100.184 25.7363 99.1758 24.6465C98.168 23.5449 97.6641 21.9805 97.6641 19.9531Z" fill="#F7C23D"/>
</svg>
