<svg width="8" height="14" viewBox="0 0 8 14" fill="none" xmlns="http://www.w3.org/2000/svg">
<path d="M1.70076 13.0014L1.7005 13.0017C1.59664 13.1112 1.45872 13.1645 1.31835 13.1466C1.17917 13.1288 1.05746 13.0438 0.976543 12.9158L1.10331 12.8356L0.976628 12.916C0.821 12.6705 0.844313 12.3117 1.04281 12.1013C1.96995 11.1187 2.97263 10.0941 3.94081 9.10474L3.94083 9.10471C4.60545 8.42587 5.2608 7.75604 5.88007 7.11201C5.76973 6.9999 5.66925 6.89889 5.59997 6.83786L5.59995 6.83784C4.14997 5.56005 2.97073 4.18107 1.73071 2.73102L1.72723 2.72694L1.72718 2.72689C1.48906 2.44819 1.24808 2.16621 1.00195 1.88114L1.70076 13.0014ZM1.70076 13.0014C2.611 12.0369 3.59738 11.0287 4.55354 10.0515L4.5856 10.0187C4.58561 10.0187 4.58562 10.0187 4.58562 10.0187C5.41433 9.17199 6.23037 8.3379 6.98022 7.55035L6.98026 7.5503M1.70076 13.0014L6.98026 7.5503M6.98026 7.5503C7.09753 7.42704 7.15559 7.249 7.14957 7.07336L6.98026 7.5503ZM6.58454 6.25837L6.58488 6.25873C6.7244 6.4014 6.85909 6.5381 6.94516 6.61313C7.07318 6.72459 7.14355 6.8973 7.14957 7.07334L6.58454 6.25837ZM6.58454 6.25837C6.44032 6.11187 6.29126 5.96105 6.18946 5.87141L6.58454 6.25837ZM2.42135 1.86644L2.42138 1.86647C3.6462 3.29917 4.79572 4.64316 6.18941 5.87137L2.42135 1.86644ZM2.42135 1.86644C2.39594 1.83673 2.3705 1.80698 2.34502 1.77719C2.13076 1.52667 1.91379 1.27299 1.69239 1.01643L1.69234 1.01637M2.42135 1.86644L1.69234 1.01637M1.69234 1.01637C1.60077 0.910381 1.47821 0.85 1.34732 0.85C1.19619 0.85 1.05772 0.930343 0.965097 1.064L0.965073 1.06404M1.69234 1.01637L0.965073 1.06404M0.965073 1.06404C0.799956 1.30247 0.812827 1.66218 1.00193 1.88112L0.965073 1.06404Z" fill="#F7C23D" stroke="#F6C23D" stroke-width="0.3"/>
</svg>
