<svg width="16" height="19" viewBox="0 0 16 19" fill="none" xmlns="http://www.w3.org/2000/svg"><path d="M3.39 16.622c1.082.343 2.655.598 4.609.598 1.955 0 3.528-.255 4.61-.598.54-.173.955-.366 1.23-.557.284-.196.396-.372.396-.502 0-.098-.076-.238-.28-.403-.2-.161-.504-.33-.913-.492-.807-.317-2.007-.593-3.575-.706a37.684 37.684 0 01-1.003 1.41l-5.073 1.25zm0 0c-.54-.173-.954-.366-1.23-.557m1.23.556l-1.23-.556m0 0c-.283-.196-.395-.371-.395-.502m.395.502l-.395-.502m0 0c0-.098.076-.238.28-.403m-.28.403l.28-.403m0 0c.2-.161.504-.331.913-.492m-.913.492l.913-.492m0 0c.807-.317 2.007-.594 3.575-.707m-3.575.707l3.575-.707m0 0c.45.662.817 1.164 1.003 1.412 0 0 0 0 0 0L6.533 13.96zM8 8.742h0c.717 0 1.405-.292 1.911-.81a2.79 2.79 0 00.792-1.95v0c0-.546-.158-1.08-.455-1.534a2.716 2.716 0 00-1.213-1.017 2.651 2.651 0 00-1.563-.157 2.686 2.686 0 00-1.384.756 2.78 2.78 0 00-.74 1.413 2.82 2.82 0 00.154 1.594c.205.504.55.936.995 1.24A2.67 2.67 0 008 8.742zm-4.11-2.76h0c0-.553.105-1.1.311-1.611a4.21 4.21 0 01.891-1.366c.382-.39.835-.7 1.334-.912a4.03 4.03 0 013.146 0c.499.212.952.521 1.334.912a4.265 4.265 0 011.202 2.976v0c0 .682-.198 1.482-.515 2.323-.317.84-.75 1.715-1.214 2.545A37.987 37.987 0 018 14.536a37.967 37.967 0 01-2.38-3.687c-.464-.83-.897-1.705-1.214-2.545-.317-.841-.515-1.64-.515-2.323zM8 7.861a1.81 1.81 0 01-1.02-.316 1.872 1.872 0 01-.678-.844 1.921 1.921 0 01-.105-1.088c.071-.365.247-.7.504-.963s.585-.442.94-.514a1.8 1.8 0 011.062.106c.335.143.622.383.825.693a1.912 1.912 0 01-.23 2.375A1.82 1.82 0 018 7.862zm7.1 7.701c0-.366-.174-.688-.463-.966-.289-.276-.697-.512-1.182-.711-.93-.382-2.163-.636-3.436-.762.647-1.006 1.367-2.227 1.933-3.458.591-1.286 1.022-2.594 1.022-3.685a5.139 5.139 0 00-1.456-3.592A4.921 4.921 0 008 .9a4.92 4.92 0 00-3.518 1.49 5.137 5.137 0 00-1.456 3.59c0 1.091.43 2.399 1.022 3.685.566 1.23 1.285 2.451 1.932 3.458-1.272.126-2.505.38-3.435.761-.485.2-.893.436-1.182.712-.29.278-.463.6-.463.966 0 .439.25.815.655 1.128.405.313.974.572 1.642.78 1.338.415 3.099.629 4.802.629 1.704 0 3.465-.214 4.803-.63.668-.207 1.238-.466 1.643-.78.404-.312.655-.688.655-1.127z" fill="#F7C23D" stroke="#F7C23D" stroke-width=".2"/></svg>