<svg width="110" height="27" viewBox="0 0 110 27" fill="none" xmlns="http://www.w3.org/2000/svg"><path d="M.281 4.396V.793h12.252v3.603H8.385V26H4.43V4.396H.28zM13.113.793h3.938l2.144 8.613 1.23 5.906.932-5.87 1.811-8.65h4.13l-4.235 18.791c-.2.96-.422 1.781-.668 2.46a8.263 8.263 0 01-.967 1.864 4.404 4.404 0 01-1.442 1.319c-.562.316-1.254.55-2.074.703-.808.14-1.758.175-2.847.105v-3.533c1.078.07 1.892-.035 2.443-.316.55-.282.902-.856 1.055-1.723l.035-.229L13.113.793zM27.81 4.396V.793h12.25v3.603h-4.148V26h-3.955V4.396h-4.148zM40.64.793h3.937l2.145 8.613 1.23 5.906.932-5.87 1.81-8.649h4.131L50.59 19.584c-.2.96-.422 1.781-.668 2.46a8.267 8.267 0 01-.967 1.864 4.405 4.405 0 01-1.441 1.319c-.563.316-1.254.55-2.075.703-.808.14-1.757.175-2.847.105v-3.533c1.078.07 1.892-.035 2.443-.316.55-.282.903-.856 1.055-1.723l.035-.229L40.641.793zM56.496 26V.793h5.836c1.957 0 3.428.533 4.412 1.6.996 1.066 1.494 2.613 1.494 4.64v3.27c0 2.027-.498 3.574-1.494 4.64-.984 1.055-2.455 1.582-4.412 1.582h-1.88V26h-3.956zm3.955-13.06h1.881c.656 0 1.143-.182 1.459-.545.316-.364.475-.979.475-1.846v-3.78c0-.867-.159-1.476-.475-1.828-.316-.363-.803-.545-1.459-.545h-1.88v8.544z" fill="#F3F3F3"/><path d="M70.102 26V.793h10.441v3.603h-6.486V26h-3.955zm12.076 0L86.203.793h5.8L96.03 26h-3.99l-.686-4.57h-4.869L85.8 26h-3.621zm4.816-7.998h3.815L88.91 5.258l-1.916 12.744zm10.67 1.951v-2.777h3.744v3.023c0 1.664.68 2.496 2.039 2.496.68 0 1.19-.21 1.53-.633.351-.421.527-1.16.527-2.214V17.86c0-1.148-.205-1.968-.615-2.46-.399-.493-1.055-.739-1.969-.739h-.984V11.06h1.195c.785 0 1.377-.2 1.775-.598.399-.41.598-1.096.598-2.057V6.998c0-1.078-.176-1.828-.527-2.25-.34-.422-.85-.633-1.53-.633-1.383 0-2.074.826-2.074 2.479V8.65h-3.639V6.77c0-2.028.493-3.575 1.477-4.641.984-1.078 2.437-1.617 4.359-1.617 1.922 0 3.381.55 4.377 1.652 1.008 1.09 1.512 2.648 1.512 4.676v.65c0 2.695-.92 4.424-2.76 5.186 1.84.797 2.76 2.56 2.76 5.29v1.987c0 2.027-.504 3.592-1.512 4.694-.996 1.09-2.455 1.634-4.377 1.634-1.922 0-3.386-.545-4.394-1.634-1.008-1.102-1.512-2.666-1.512-4.694z" fill="#F7C23D"/></svg>