<svg width="8" height="14" viewBox="0 0 8 14" fill="none" xmlns="http://www.w3.org/2000/svg"><path d="M1.7 13.001h0a.446.446 0 01-.382.146.48.48 0 01-.341-.231l.126-.08-.126.08c-.156-.245-.133-.604.066-.815.927-.982 1.93-2.007 2.898-2.996h0c.664-.68 1.32-1.349 1.94-1.993a6.478 6.478 0 00-.281-.274h0C4.15 5.56 2.97 4.18 1.73 2.73l-.003-.004h0l-.725-.846L1.701 13zm0 0a240.75 240.75 0 012.854-2.95l.032-.032s0 0 0 0C5.414 9.172 6.23 8.338 6.98 7.55h0M1.7 13.001l5.28-5.45m0 0a.664.664 0 00.17-.478l-.17.477zm-.395-1.293h0c.14.143.274.28.36.355a.64.64 0 01.205.46l-.565-.815zm0 0a9.237 9.237 0 00-.396-.387l.396.387zM2.42 1.866h0C3.646 3.3 4.796 4.643 6.19 5.871L2.421 1.866zm0 0l-.076-.089c-.214-.25-.431-.504-.653-.76h0m.73.85l-.73-.85m0 0A.455.455 0 001.347.85c-.15 0-.29.08-.382.214h0m.727-.048l-.727.048m0 0a.695.695 0 00.037.817l-.037-.817z" fill="#F7C23D" stroke="#F6C23D" stroke-width=".3"/></svg>